# xmcd
#
# Track frame offsets:
#	150
#	17795
#	35286
#	66211
#
# Disc length: 1570 seconds
#
# Revision: 3
# Processed by: cddbd v1.5.2PL0 Copyright (c) Steve Scherf et al.
# Submitted via: audiograbber 1.83.01
#
DISCID=2b062004
DTITLE=Sarah Connor - (Maxi) Sexual Healing
DYEAR=2007
DGENRE=R&B
TTITLE0=Sarah Connor feat. Ne-Yo - Sexual Healing [Video Version]
TTITLE1=Sarah Connor - Sexual Healing [Original Radio Edit]
TTITLE2=Sarah Connor - Get It Right
TTITLE3=Sexual Healing (Video Daten-CD)
EXTD=
EXTT0=
EXTT1=
EXTT2=
EXTT3=
PLAYORDER=
